<svg width="1024" height="1024" viewBox="0 0 512 512" xmlns="http://www.w3.org/2000/svg">
<defs>
<linearGradient id="vL" x1="0" y1="1" x2="0.4" y2="0">
<stop offset="0" stop-color="#5143EF"/>

<stop offset="1" stop-color="#9B92F1"/>
</linearGradient>
<linearGradient id="vR" x1="0" y1="1" x2="0.3" y2="0">
<stop offset="0" stop-color="#7A6BEC"/>

<stop offset="1" stop-color="#B7B0F5"/>
</linearGradient>
</defs>
<rect x="0" y="0" width="512" height="512" fill="#101022"/>
<g transform="translate(262,258) rotate(28)">
<path d="M -6,150 C -88,104 -96,-30 -14,-180 L 0,-190 C 2,-120 4,-20 2,60 C 1,100 0,130 -2,152 Z" fill="url(#vL)"/>
<path d="M 2,152 C 76,104 86,-28 8,-182 L 0,-190 C 2,-110 4,-10 2,70 C 1,110 0,135 -2,152 Z" fill="url(#vR)"/>
<path d="M 8,136 C 70,92 82,-22 12,-164" fill="none" stroke="#3FE8D4" stroke-width="9" stroke-linecap="round"/>
<path d="M 0,-190 C 4,-100 5,0 2,80 C 1,120 0,150 -2,185" fill="none" stroke="#EFEDFD" stroke-width="8" stroke-linecap="round"/>
</g>
<!-- 趋势线尽头的数据点 = ¥（直立绘制于旋转组外，描边而非字体以保证各尺寸导出稳定）-->
<g stroke="#3FE8D4" stroke-width="8.5" stroke-linecap="round" stroke-linejoin="round" fill="none">
<path d="M 350,119 L 350,80"/>
<path d="M 350,80 L 330,55 M 350,80 L 370,55"/>
<path d="M 328,92 L 372,92 M 328,104 L 372,104"/>
</g>
</svg>
